<svg width="21" height="20" viewBox="0 0 21 20" fill="none" xmlns="http://www.w3.org/2000/svg">
<path d="M20.1145 8.1798H10.6995V12.0495H16.078C15.8461 13.3003 15.1425 14.3583 14.082 15.0671C13.1855 15.6664 12.0416 16.0208 10.6969 16.0208C8.09368 16.0208 5.89172 14.2619 5.10475 11.8984C4.90671 11.299 4.79205 10.658 4.79205 9.9987C4.79205 9.33941 4.90671 8.69837 5.10475 8.09902C5.89433 5.73811 8.09628 3.97915 10.6995 3.97915C12.1666 3.97915 13.4826 4.48469 14.5197 5.47492L17.3862 2.60586C15.6533 0.990228 13.394 0 10.6995 0C6.79335 0 3.41355 2.24104 1.76925 5.50879C1.09172 6.85863 0.706055 8.38567 0.706055 10.0013C0.706055 11.6169 1.09172 13.1414 1.76925 14.4912C3.41355 17.759 6.79335 20 10.6995 20C13.3992 20 15.6611 19.1036 17.3132 17.5765C19.2025 15.8358 20.2943 13.2717 20.2943 10.2254C20.2943 9.51661 20.2318 8.83648 20.1145 8.1798Z" fill="white"/>
</svg>
